# xmcd
#
# Track frame offsets:
#	150
#	16568
#	33084
#	50213
#	74124
#	89265
#	109856
#	130693
#	149308
#	168898
#	184309
#	201335
#
# Disc length: 2881 seconds
#
# Revision: 1
# Processed by: cddbd v1.5.2PL0 Copyright (c) Steve Scherf et al.
# Submitted via: audiograbber 1.83.01
#
DISCID=a80b3f0c
DTITLE=Walt Wilkins and The Mystiqueros - Diamonds In The Sun
DYEAR=2007
DGENRE=Country
TTITLE0=Trains I Missed
TTITLE1=Honky-Tonk Road
TTITLE2=You Can't Outdrink The Truth
TTITLE3=Diamonds In The Sun
TTITLE4=Get Me Gone
TTITLE5=Just Like Hank
TTITLE6=Red River Blues
TTITLE7=Quiet Moon
TTITLE8=All These Memories
TTITLE9=The Shape I'm In
TTITLE10=Big Shiny Cars
TTITLE11=Stand Up Seven
EXTD=YEAR: 2007
EXTT0=
EXTT1=
EXTT2=
EXTT3=
EXTT4=
EXTT5=
EXTT6=
EXTT7=
EXTT8=
EXTT9=
EXTT10=
EXTT11=
PLAYORDER=
